<svg xml:space="preserve" xmlns="http://www.w3.org/2000/svg" viewBox="0 0 600.6 401.6">
  <path d="M265.6.6c-20 130-35 220-70 320l210 45c45.5-133.8 70-235 80-335z" fill="#fff" stroke="#5a5a5a"/>
  <path d="M265.6.6c-15 90-40 210-85 300l215 45c50-105 82.4-240 90-315z" fill="#fff" stroke="#5a5a5a"/>
  <path style="mix-blend-mode:normal" d="m340 1610 215 45c49.7-78.7 90-185 105-295l-220-30c-15 90-50 205-100 280z" fill="#fff" stroke="#5a5a5a" transform="translate(-174.4 -1329.4)"/>
  <path d="m265.6.6-225 240 245 50 200-260z" fill="#f8e0e0" stroke="#ae6a6a"/>
  <path d="m490.6 60.6 35 280-95-20c20-65 45-150 60-260z" fill="#e1e5f7" stroke="#446577"/>
  <g stroke="#d3aeae" fill="none">
    <path d="m266.7 99.9-5-.2-5-7-11.7 5-16.7-3.5-27.6 21.2 5.6.5-27.1 17 5.8 1.1-28.8 22c-2 .4-6.3 2-7.7 2.6-6 2.7 16.6 5.7 25 5.8l-3.8 5.2c4 3.6 18.3 5.5 14.8-.7 3.2-.3 6.2-1.2 9.8-4l7.9.8-5.1 6.1c8.6 5 20.3 5.4 17-.4 5.9-1.8 7-4.2 9.1-6.7a61 61 0 0 0 11.6-9l91.1 9.8c6 .7 18.7-4.4 25-11.4l39.8-43.7c4.6-5.1 7.1-13.4-3.9-14.6l-91-9.7c-9.8-1-21.8 5.2-29.1 13.8z"/>
    <path d="M156.2 156a60 60 0 0 0 35.8-19.6c15.3-15.4 19.7-21.7 25.5-29.7 2.5-3.5 11.9-7.5 17.2-7.4l27 .4m-26.9 56 11.6-11.9c1.6 1.5 2.4 2 2.7 1.7l-5.3 3.7 1.7 1.1 5.5-3.9c4.3.8 4-1.4 4.3-3l43.6-31.4-.3-.2-43.4 29.9c-.1-2.1-.7-3.7-2-5.7l2.6-3.6c5 .3 8.4 0 10.2-.8l-1.4-5.5 14.4-2.4 11.5-14.5c2.1-2.8 2.1-8.4-2.2-8.5l-21.6-.8"/>
    <path d="m255.8 132.4-28.5-.8c7.7 14.6-.5 14.7-6.5 8a172 172 0 0 1-22.7 18.1c.6 3.8-2 5.2-3.8 7.2m28.7-46.4 11-13.7c.6-.9 3.8-1.1 2.3.8l-10.3 13c-1 1.2-3.8 1-3-.1z"/>
    <path d="M208.5 127.3a19 19 0 0 0 9.5-5.5 22 22 0 0 0-9.5 5.5zm5.9.1c4.2-.8 7-3 9.5-5.4a22 22 0 0 0-9.5 5.4zm5.1.7c4.3-.9 8.1-3.6 10.4-5.8-3 .4-7.7 3-10.4 5.8z" stroke-linejoin="bevel"/>
    <path d="m202.2 165.7 15 1.7c1 0 4.2-1.5 6-2.7m48.1-64.7c7.6-8.6 16-10.7 20.9-10.2l92.5 9.9c3.4.3 7.4 4.1 2.6 9.3l-41.5 45.7a26.6 26.6 0 0 1-18.7 7l-88.8-9.6"/>
    <path d="M280.6 109c-.8.8 1.4 1.7 2.5.5l1.6-1.8c1.5-1.6-1-1.9-2.2-.7zm-82.4 49.3 29.3 3.6m2.8-2.2-29.5-3.8m6.6-4.9 28.5 3.6m-25.4-6 27.8 3.5m8.1-8.3-16-2m13.9 4.2-27-3.1"/>
  </g>
  <path d="m320.8 141 11.7 16.3-207 148.9-38.3 15.2 26.6-31.5z" fill="#fff"/>
  <path d="M100.5 305.7c4.1 1.1 6 3.8 5.9 8.1l-19.2 7.6z" fill="#464646"/>
  <path d="m332.5 157.3-207 148.9-38.3 15.2 26.6-31.5 207-148.9" fill="none" stroke="#5a5a5a"/>
  <path d="M113.8 290c9.3 1.5 13.2 6.9 11.7 16.2" fill="none" stroke="#5a5a5a"/>
  <path d="M373.6 103c9.3 1.6 13.2 7 11.7 16.3l16.2-11.6c1.5-9.4-2.3-14.8-11.6-16.3z" fill="#bfbfbf" stroke="#5a5a5a"/>
  <g aria-label="PeerView" fill="#373737" stroke="#5a5a5a" stroke-width="2">
    <path d="M1 208v-8.3l10.6-1.8v-74.7L1 121.4v-8.3h43.6q10.1 0 17.3 3.6 7.1 3.5 11 10 3.7 6.3 3.7 14.8 0 8.6-3.8 15t-11 9.9q-7 3.5-17.2 3.5H24.4v28l10.6 1.8v8.2zm23.4-48.1h20.2q9.6 0 14.3-5.2 4.9-5.2 4.9-13 0-8-4.9-13.2-4.7-5.3-14.3-5.3H24.4Zm91.4 49.4q-9.8 0-17-4.4-7.2-4.5-11.2-12.5-4-8-4-18.3v-2.9q0-10 4.2-17.9 4.2-8 11-12.5 6.9-4.6 15-4.6 9.5 0 16 3.9 6.4 3.9 9.6 11 3.3 7 3.3 16.6v8H97l-.2.3q.1 6.8 2.3 12 2.3 5.3 6.5 8.3 4.3 3 10.2 3 6.5 0 11.4-1.8 5-2 8.5-5.2l5 8.3q-3.8 3.7-10 6.2t-15 2.5zm-18.4-43.6h32.4V164q0-5-1.8-9-1.7-4.1-5.3-6.4-3.5-2.3-8.9-2.3-4.3 0-7.8 2.5t-5.8 6.8q-2.3 4.3-3 9.8zm89.3 43.6q-9.8 0-17-4.4-7.2-4.5-11.2-12.5-4-8-4-18.3v-2.9q0-10 4.2-17.9 4.1-8 11-12.5 6.9-4.6 15-4.6 9.5 0 16 3.9 6.4 3.9 9.6 11 3.3 7 3.3 16.6v8h-45.7l-.2.3q.1 6.8 2.3 12 2.3 5.3 6.5 8.3 4.3 3 10.2 3 6.5 0 11.4-1.8 5-2 8.5-5.2l5 8.3q-3.8 3.7-10 6.2t-15 2.5zm-18.4-43.6h32.4V164q0-5-1.8-9-1.7-4.1-5.3-6.4-3.5-2.3-8.9-2.3-4.3 0-7.8 2.5t-5.8 6.8q-2.3 4.3-3 9.8zm55.1 42.2v-8.2L234 198v-50.3l-10.6-1.8v-8.3h22l1.2 9 .1 1.2q3-5.4 7.4-8.5 4.4-3 10-3 2 0 4.2.4 2.1.3 3 .6l-1.7 12-8.9-.6q-5-.3-8.5 2.4-3.5 2.6-5.4 7v40l10.6 1.7v8.2z" fill="#da5e5e"/>
    <path d="M317.9 208 286 122.4l-7.6-1V113h30v8.3l-8.7 1.4L321 183l2.2 7.4h.4l2.3-7.4 22-60.4-9.6-1.3V113h29.9v8.3l-7.7 1L329 208zm59 0v-8.3l10.6-1.8v-50.3l-10.7-1.8v-8.3h23.5v60.4l10.6 1.8v8.2zm10-87.9v-13.7h13.4V120zm65 89.2q-9.8 0-17-4.4-7.3-4.5-11.2-12.5-4-8-4-18.3v-2.9q0-10 4.2-17.9 4.1-8 11-12.5 6.9-4.6 15-4.6 9.5 0 15.9 3.9t9.7 11q3.2 7 3.2 16.6v8H433l-.2.3q.2 6.8 2.4 12 2.3 5.3 6.5 8.3 4.2 3 10.1 3 6.6 0 11.4-1.8 5-2 8.6-5.2l5 8.3q-3.8 3.7-10 6.2t-15 2.5zm-18.5-43.6H466V164q0-5-1.8-9-1.8-4.1-5.4-6.4-3.5-2.3-8.8-2.3-4.3 0-7.8 2.5t-5.8 6.8q-2.3 4.3-3 9.8zm80.3 42.2L495 146.7l-7.8-1v-8.2h29v8.3l-8.6 1.4 9.7 35 2.2 8.4h.4l2.9-8.3 15.3-44.8H549l14.6 44.7 3 9.8h.5l3-9.8 9.9-35-8.9-1.4v-8.3h28.5v8.3l-7.8 1-18.3 61.1h-12.1L547 165.6l-3.4-11.3h-.4l-3.3 11.3-15.3 42.3z" fill="#697dd9"/>
  </g>
  <path d="m389.9 91.4 11.6 16.3-69 49.6-11.7-16.3z" fill="#fff"/>
  <path d="M373.6 103c9.3 1.6 13.2 7 11.7 16.3l16.2-11.6c1.5-9.4-2.3-14.8-11.6-16.3z" fill="#bfbfbf" stroke="#5a5a5a"/>
  <path d="m320.8 141 69-49.6c9.4 1.5 13.2 7 11.7 16.3l-69 49.6" fill="none" stroke="#5a5a5a"/>
  <path d="M377.3 371.6c-30 30-215 65-290-50" fill="none" stroke="#5a5a5a" stroke-linejoin="bevel" stroke-dasharray="12,12"/>
</svg>
