<svg xmlns="http://www.w3.org/2000/svg" xml:space="preserve" viewBox="0 0 535.438 393.059">
  <path fill="none" stroke="#5a5a5a" stroke-dasharray="12,12" d="M346.022 375.374A224.642 224.642 0 0 1 90.71 315.878"/>
  <path fill="#f4f4f4" stroke="#5a5a5a" d="M225.977.562c-20 130-35 220-70 320l210 45c45.53-133.724 70-235 80-335z"/>
  <path fill="#fafafa" stroke="#5a5a5a" d="M225.977.562c-15 90-40 210-85 300l215 45c50-105 82.402-240 90-315z"/>
  <path fill="#fff" stroke="#5a5a5a" d="m340 1610 215 45c49.748-78.74 90-185 105-295l-220-30c-15 90-50 205-100 280z" style="mix-blend-mode:normal" transform="translate(-214.023 -1329.438)"/>
  <path fill="#f8e0e0" stroke="#ae6a6a" d="m225.977.562-225 240 245 50 200-260z"/>
  <path fill="#e1e5f7" stroke="#446577" d="m450.977 60.562 31.01 280-91.01-20c20-65 45-150 60-260z"/>
  <g fill="none" stroke="#d3aeae">
    <path d="m227.05 99.85-5.014-.166-5.014-6.936-11.698 5.014-16.63-3.593-27.574 21.224 5.515.502-27.074 17.046 5.849 1.087-28.829 21.923c-2.078.485-6.29 2.062-7.687 2.692-5.997 2.707 16.564 5.668 25.068 5.717l-3.864 5.256c3.927 3.549 18.251 5.527 14.81-.743 3.212-.318 6.196-1.132 9.777-3.928l7.855.752-5.097 6.1c8.597 4.977 20.353 5.387 17.085-.443 5.818-1.73 6.97-4.203 9.07-6.66 4.237-2.642 8.149-5.61 11.615-9.024l91.101 9.835c5.972.645 18.697-4.431 25.01-11.387l39.698-43.742c4.644-5.117 7.197-13.406-3.832-14.58l-90.994-9.685c-9.867-1.05-21.829 5.182-29.146 13.74z"/>
    <path d="M116.581 155.951c17.196-3.866 23.943-7.693 35.79-19.588 15.295-15.356 19.667-21.69 25.525-29.678 2.52-3.439 11.88-7.456 17.174-7.381l26.966.38M195.213 155.67l11.564-11.844c1.616 1.523 2.444 1.979 2.712 1.679l-5.332 3.709 1.753 1.125 5.462-3.893c4.3.792 4.052-1.412 4.262-3.08l43.623-31.316-.296-.222-43.402 29.848c-.117-2.09-.682-3.692-1.967-5.644l2.559-3.647c4.939.297 8.457.062 10.223-.83l-1.403-5.463 14.375-2.435 11.487-14.49c2.184-2.755 2.173-8.34-2.192-8.504l-21.591-.812"/>
    <path d="m216.15 132.385-28.433-.77c7.65 14.568-.529 14.66-6.573 7.929-6.28 6.205-15.492 13.404-22.625 18.196.569 3.762-2.044 5.18-3.834 7.205M183.456 118.464l10.88-13.692c.682-.858 3.834-1.103 2.334.798l-10.338 13.102c-.867 1.1-3.793.946-2.876-.208z"/>
    <path stroke-linejoin="bevel" d="M168.86 127.277c4.237-.863 6.96-3.113 9.555-5.481-3.471 1.176-6.84 2.586-9.555 5.481zM174.76 127.434c4.237-.863 6.96-3.114 9.554-5.482-3.47 1.177-6.84 2.587-9.554 5.482zM179.903 128.113c4.236-.863 8.108-3.61 10.415-5.821-3.027.42-7.7 2.926-10.415 5.82z"/>
    <path d="m162.54 165.697 15.091 1.669c.979.108 4.114-1.454 5.967-2.671M231.63 100.023c7.676-8.643 16.032-10.721 20.908-10.202l92.556 9.86c3.357.358 7.33 4.12 2.608 9.313l-41.555 45.688c-3.455 3.8-12.43 7.727-18.71 7.05l-88.785-9.584"/>
    <path d="M240.956 108.959c-.822.841 1.423 1.726 2.484.557l1.626-1.792c1.51-1.664-1.051-1.895-2.168-.752zM158.583 158.31l29.241 3.556M190.674 159.7l-29.545-3.756M167.816 151.005l28.45 3.586M170.876 148.591l27.776 3.557M206.777 143.826l-16.066-1.943M204.694 145.96l-27.083-3.091"/>
  </g>
  <path fill="#fff" d="m386.165 76.701 12.17 15.87-139.204 106.752-.909-24.507z"/>
  <path fill="#bfbfbf" stroke="#5a5a5a" d="M370.294 88.872c9.347 1.233 13.404 6.523 12.17 15.87l15.871-12.17c1.234-9.348-2.823-14.638-12.17-15.871z"/>
  <path fill="none" stroke="#5a5a5a" d="m258.222 174.816 127.943-98.115c9.347 1.233 13.404 6.523 12.17 15.87l-141.24 108.313"/>
  <path fill="#697dd9" stroke="#5a5a5a" stroke-width="2" d="m464.256 1553.37-31.77-85.481-7.553-1.042v-8.268h29.948v8.268l-8.659 1.367 21.224 60.287 2.213 7.487h.391l2.344-7.487 22.005-60.352-9.635-1.302v-8.268h29.882v8.268l-7.617 1.042-31.77 85.481zm58.984 0v-8.203l10.612-1.823v-50.325l-10.612-1.823v-8.268h23.437v60.416l10.612 1.823v8.203zm9.961-87.825v-13.737h13.476v13.737zm65.039 89.192q-9.766 0-16.992-4.427-7.227-4.492-11.198-12.434-3.906-7.943-3.906-18.36v-2.864q0-10.026 4.101-17.904 4.167-7.943 11.003-12.5 6.9-4.622 15.039-4.622 9.505 0 15.885 3.906 6.445 3.906 9.7 11.003 3.256 7.03 3.256 16.601v8.008h-45.703l-.196.325q.13 6.771 2.344 12.045 2.279 5.208 6.51 8.203 4.232 2.994 10.157 2.994 6.51 0 11.393-1.822 4.948-1.888 8.529-5.144l5.013 8.334q-3.776 3.645-10.026 6.185-6.185 2.473-14.91 2.473zm-18.425-43.62h32.487v-1.692q0-5.078-1.823-9.05-1.757-4.036-5.338-6.314-3.516-2.344-8.854-2.344-4.297 0-7.813 2.539-3.515 2.474-5.794 6.77-2.279 4.298-2.995 9.766zm80.274 42.253-18.555-61.262-7.878-.912v-8.268h29.102v8.268l-8.659 1.432 9.7 35.091 2.214 8.334h.39l2.865-8.334 15.3-44.791h10.807l14.583 44.661 3.125 9.896h.39l3.06-9.896 9.832-35.026-8.855-1.367v-8.268h28.45v8.268l-7.812 1.107-18.229 61.067h-12.174l-14.258-42.317-3.385-11.328-.391.065-3.32 11.263-15.3 42.317z" aria-label="PeerView" font-family="Roboto Slab" font-size="133.333" style="-inkscape-font-specification:&quot;Roboto Slab, Normal&quot;" transform="translate(-211.523 -1308.58)"/>
  <path fill="#fff" d="m258.222 174.816.91 24.507-130.597 100.15-37.826 16.405 25.656-32.276z"/>
  <path fill="#464646" d="M103.537 299.74c4.144 1.023 6.173 3.668 6.085 7.935l-18.913 8.203z"/>
  <path fill="none" stroke="#5a5a5a" d="M261.524 197.488 128.535 299.472 90.71 315.878l25.656-32.276L259.97 173.475"/>
  <path fill="none" stroke="#5a5a5a" d="M116.365 283.602c9.347 1.233 13.404 6.523 12.17 15.87"/>
  <path fill="#da5e5e" stroke="#5a5a5a" stroke-width="2" d="M175.395 1537.37v-8.203l10.612-1.823v-74.674l-10.612-1.823v-8.268h43.554q10.156 0 17.318 3.58 7.161 3.516 10.937 9.896 3.776 6.38 3.776 14.91 0 8.593-3.776 14.973-3.776 6.38-10.937 9.896-7.162 3.516-17.318 3.516h-20.117v27.994l10.612 1.823v8.203zm23.437-48.046h20.117q9.636 0 14.388-5.144 4.818-5.208 4.818-13.086 0-7.877-4.818-13.15-4.752-5.274-14.388-5.274h-20.117Zm91.341 49.413q-9.766 0-16.992-4.427-7.227-4.492-11.198-12.434-3.906-7.943-3.906-18.36v-2.864q0-10.026 4.101-17.904 4.167-7.943 11.003-12.5 6.9-4.622 15.039-4.622 9.505 0 15.885 3.906 6.446 3.906 9.7 11.003 3.256 7.03 3.256 16.601v8.008h-45.703l-.195.325q.13 6.771 2.343 12.045 2.279 5.208 6.51 8.203 4.233 2.994 10.157 2.994 6.51 0 11.393-1.822 4.948-1.888 8.529-5.144l5.013 8.334q-3.776 3.645-10.026 6.185-6.185 2.473-14.909 2.473zm-18.424-43.62h32.486v-1.692q0-5.078-1.822-9.05-1.758-4.036-5.339-6.314-3.516-2.344-8.854-2.344-4.297 0-7.813 2.539-3.515 2.474-5.794 6.77-2.278 4.298-2.995 9.766zm89.322 43.62q-9.765 0-16.992-4.427-7.226-4.492-11.198-12.434-3.906-7.943-3.906-18.36v-2.864q0-10.026 4.102-17.904 4.166-7.943 11.002-12.5 6.901-4.622 15.04-4.622 9.504 0 15.885 3.906 6.445 3.906 9.7 11.003 3.255 7.03 3.255 16.601v8.008h-45.703l-.195.325q.13 6.771 2.344 12.045 2.278 5.208 6.51 8.203 4.232 2.994 10.156 2.994 6.51 0 11.393-1.822 4.948-1.888 8.53-5.144l5.012 8.334q-3.776 3.645-10.026 6.185-6.185 2.473-14.909 2.473zm-18.424-43.62h32.487v-1.692q0-5.078-1.823-9.05-1.758-4.036-5.339-6.314-3.515-2.344-8.854-2.344-4.297 0-7.812 2.539-3.516 2.474-5.795 6.77-2.278 4.298-2.994 9.766zm55.143 42.253v-8.203l10.612-1.823v-50.325l-10.612-1.823v-8.268h22.07l1.107 8.984.13 1.237q2.995-5.403 7.357-8.463 4.427-3.06 10.091-3.06 2.018 0 4.102.39 2.148.326 3.06.651l-1.693 11.914-8.92-.52q-5.078-.326-8.528 2.343-3.45 2.605-5.339 7.032v39.908l10.612 1.823v8.203z" aria-label="PeerView" font-family="Roboto Slab" font-size="133.333" style="-inkscape-font-specification:&quot;Roboto Slab, Normal&quot;" transform="translate(-159.51 -1404.82)"/>
</svg>
